<svg width="1440" height="1007" viewBox="0 0 1440 1007" fill="none" xmlns="http://www.w3.org/2000/svg">
<g clip-path="url(#clip0_454_6)">
<rect width="1440" height="1007" fill="white"/>
<rect y="615" width="1440" height="3796" rx="40" fill="white"/>
<path d="M594.5 413.503C505 390.003 -20.5 539.503 -24 547.503L-13 1042.5C138 1097.67 444.7 1209.3 463.5 1214.5C487 1221 753.5 1150 594.5 883.503C435.5 617.003 684 437.003 594.5 413.503Z" fill="url(#paint0_linear_454_6)"/>
<path d="M781.893 7.00499C773.622 -9.53694 760.368 -21.1487 748.266 -34.6705C749.398 -43.7863 751.875 -53.144 756.575 -60.1006C760.233 -65.515 770.454 -72.3046 776.199 -74.9934C796.412 -84.4551 812.492 -84.455 834.769 -84.4548L835.069 -84.4548C862.522 -84.4548 889.85 -88.9613 917.418 -89.1855C941.184 -89.3787 964.962 -89.1855 988.729 -89.1855C1031.25 -89.1855 1074.76 -91.9502 1117.16 -88.4846C1153.13 -85.5446 1188.57 -80.0517 1224.21 -74.4678C1252.48 -70.0382 1281.23 -68.4509 1309.01 -61.4146C1359.58 -48.6095 1410.48 -34.5733 1454.61 -5.52254C1477.55 9.57857 1504.84 27.1936 1521.19 49.4935C1537.96 72.3553 1553.26 105.806 1553.26 134.032C1553.26 151.436 1553 168.556 1549.23 185.632C1547.15 195.031 1545.56 206.775 1540.12 214.98C1530.05 230.145 1514.29 242.571 1500.17 253.701C1471.59 276.225 1438.84 291.532 1404.85 304.162C1377.41 314.359 1347.09 324.621 1317.95 328.341C1288.98 332.039 1259.92 334.964 1230.87 337.977C1208.42 340.307 1186.63 342.224 1164.11 343.234C1144.07 344.132 1123.4 346.51 1104.02 351.819C1066.07 362.21 1029.87 381.079 999.066 405.433C986.746 415.175 977.006 426.234 968.229 439.249C957.637 454.954 945.594 468.573 933.8 483.314C905.51 518.677 877.854 556.295 836.909 578.629C822.841 586.302 802.18 589.09 786.448 590.105C765.256 591.472 743.729 590.455 722.497 590.455C708.167 590.455 693.039 591.613 680.709 582.921C673.366 577.745 664.164 568.522 659.333 560.757C651.257 547.778 653.809 526.792 656.968 512.399C658.668 504.656 662.534 496.453 667.305 490.147C673.946 481.372 678.702 471.366 685.44 462.727C700.779 443.061 721.059 427.439 737.214 408.412C748.192 395.483 760.998 383.613 772.694 371.267C783.056 360.33 790.159 346.737 797.079 333.494L797.574 332.546L797.735 332.237C807.885 312.822 817.581 294.272 825.082 273.5C829.702 260.706 827.886 246.275 827.886 232.851C827.886 215.624 829.572 197.518 826.309 180.551C819.279 143.994 819.695 106.044 807.824 70.4311C800.836 49.466 791.79 26.7999 781.893 7.00499Z" fill="url(#paint1_linear_454_6)"/>
<g filter="url(#filter0_b_454_6)">
<rect width="1440" height="1007" fill="white" fill-opacity="0.2"/>
</g>
</g>
<defs>
<filter id="filter0_b_454_6" x="-200" y="-200" width="1840" height="1407" filterUnits="userSpaceOnUse" color-interpolation-filters="sRGB">
<feFlood flood-opacity="0" result="BackgroundImageFix"/>
<feGaussianBlur in="BackgroundImageFix" stdDeviation="100"/>
<feComposite in2="SourceAlpha" operator="in" result="effect1_backgroundBlur_454_6"/>
<feBlend mode="normal" in="SourceGraphic" in2="effect1_backgroundBlur_454_6" result="shape"/>
</filter>
<linearGradient id="paint0_linear_454_6" x1="310.411" y1="411" x2="310.411" y2="1214.9" gradientUnits="userSpaceOnUse">
<stop stop-color="#967E76"/>
<stop offset="1" stop-color="#D7C0AE"/>
</linearGradient>
<linearGradient id="paint1_linear_454_6" x1="1103.6" y1="-90.2302" x2="1103.6" y2="590.819" gradientUnits="userSpaceOnUse">
<stop stop-color="#D7C0AE"/>
<stop offset="1" stop-color="#EEE3CB"/>
</linearGradient>
<clipPath id="clip0_454_6">
<rect width="1440" height="1007" fill="white"/>
</clipPath>
</defs>
</svg>
