<svg width="500" height="610" viewBox="0 0 500 610" fill="none" xmlns="http://www.w3.org/2000/svg">
<g filter="url(#filter0_d_123_134)">
<rect x="40" y="18" width="420" height="530" rx="20" fill="#B7C4CF"/>
</g>
<path d="M212.041 283V264.818H219.214C220.594 264.818 221.768 265.082 222.739 265.608C223.71 266.129 224.449 266.854 224.958 267.783C225.473 268.707 225.731 269.772 225.731 270.979C225.731 272.187 225.47 273.252 224.95 274.175C224.429 275.099 223.674 275.818 222.686 276.333C221.703 276.848 220.514 277.105 219.117 277.105H214.545V274.025H218.495C219.235 274.025 219.845 273.897 220.324 273.643C220.81 273.382 221.171 273.024 221.407 272.569C221.65 272.107 221.771 271.577 221.771 270.979C221.771 270.376 221.65 269.849 221.407 269.399C221.171 268.943 220.81 268.591 220.324 268.343C219.839 268.088 219.223 267.961 218.478 267.961H215.885V283H212.041ZM234.098 283.266C232.719 283.266 231.527 282.973 230.52 282.387C229.52 281.796 228.748 280.973 228.203 279.919C227.659 278.86 227.387 277.632 227.387 276.235C227.387 274.826 227.659 273.595 228.203 272.542C228.748 271.482 229.52 270.66 230.52 270.074C231.527 269.482 232.719 269.186 234.098 269.186C235.477 269.186 236.667 269.482 237.667 270.074C238.673 270.66 239.449 271.482 239.993 272.542C240.538 273.595 240.81 274.826 240.81 276.235C240.81 277.632 240.538 278.86 239.993 279.919C239.449 280.973 238.673 281.796 237.667 282.387C236.667 282.973 235.477 283.266 234.098 283.266ZM234.116 280.337C234.743 280.337 235.267 280.159 235.687 279.804C236.108 279.443 236.424 278.952 236.637 278.33C236.856 277.709 236.966 277.002 236.966 276.208C236.966 275.415 236.856 274.708 236.637 274.087C236.424 273.465 236.108 272.974 235.687 272.613C235.267 272.252 234.743 272.071 234.116 272.071C233.483 272.071 232.95 272.252 232.518 272.613C232.092 272.974 231.769 273.465 231.55 274.087C231.337 274.708 231.231 275.415 231.231 276.208C231.231 277.002 231.337 277.709 231.55 278.33C231.769 278.952 232.092 279.443 232.518 279.804C232.95 280.159 233.483 280.337 234.116 280.337ZM254.615 273.252L251.153 273.465C251.093 273.169 250.966 272.903 250.771 272.666C250.575 272.424 250.318 272.231 249.998 272.089C249.685 271.941 249.309 271.867 248.871 271.867C248.285 271.867 247.791 271.991 247.388 272.24C246.986 272.483 246.785 272.808 246.785 273.217C246.785 273.542 246.915 273.817 247.175 274.042C247.436 274.267 247.883 274.448 248.516 274.584L250.984 275.081C252.31 275.353 253.298 275.791 253.949 276.395C254.6 276.999 254.926 277.792 254.926 278.774C254.926 279.668 254.662 280.452 254.135 281.127C253.615 281.801 252.898 282.328 251.987 282.707C251.081 283.08 250.037 283.266 248.853 283.266C247.048 283.266 245.61 282.891 244.539 282.139C243.473 281.381 242.849 280.351 242.665 279.049L246.385 278.854C246.498 279.404 246.77 279.825 247.202 280.115C247.634 280.399 248.187 280.541 248.862 280.541C249.525 280.541 250.058 280.414 250.46 280.159C250.868 279.899 251.076 279.564 251.081 279.156C251.076 278.813 250.931 278.531 250.646 278.312C250.362 278.088 249.924 277.916 249.333 277.798L246.971 277.327C245.639 277.061 244.648 276.599 243.997 275.942C243.352 275.285 243.029 274.448 243.029 273.43C243.029 272.554 243.266 271.799 243.74 271.166C244.219 270.533 244.891 270.044 245.755 269.701C246.625 269.358 247.643 269.186 248.809 269.186C250.531 269.186 251.886 269.55 252.875 270.278C253.869 271.006 254.449 271.997 254.615 273.252ZM264.56 269.364V272.205H256.348V269.364H264.56ZM258.213 266.097H261.995V278.81C261.995 279.159 262.048 279.431 262.154 279.626C262.261 279.816 262.409 279.949 262.598 280.026C262.794 280.103 263.018 280.141 263.273 280.141C263.451 280.141 263.628 280.127 263.806 280.097C263.983 280.061 264.119 280.035 264.214 280.017L264.809 282.831C264.619 282.891 264.353 282.959 264.01 283.036C263.667 283.118 263.249 283.169 262.758 283.186C261.847 283.222 261.048 283.101 260.361 282.822C259.68 282.544 259.151 282.112 258.772 281.526C258.393 280.94 258.207 280.201 258.213 279.307V266.097ZM273.092 283.266C271.689 283.266 270.482 282.982 269.47 282.414C268.464 281.84 267.688 281.029 267.144 279.982C266.599 278.928 266.327 277.682 266.327 276.244C266.327 274.841 266.599 273.61 267.144 272.551C267.688 271.491 268.455 270.666 269.443 270.074C270.437 269.482 271.603 269.186 272.941 269.186C273.841 269.186 274.678 269.331 275.453 269.621C276.235 269.905 276.915 270.334 277.495 270.908C278.081 271.482 278.537 272.205 278.862 273.075C279.188 273.939 279.351 274.951 279.351 276.111V277.15H267.836V274.806H275.791C275.791 274.261 275.672 273.779 275.436 273.359C275.199 272.938 274.87 272.61 274.45 272.373C274.036 272.131 273.554 272.009 273.003 272.009C272.429 272.009 271.92 272.142 271.476 272.409C271.038 272.669 270.695 273.021 270.446 273.465C270.198 273.903 270.07 274.391 270.065 274.93V277.158C270.065 277.833 270.189 278.416 270.437 278.907C270.692 279.399 271.05 279.777 271.512 280.044C271.973 280.31 272.521 280.443 273.154 280.443C273.574 280.443 273.959 280.384 274.308 280.266C274.657 280.147 274.956 279.97 275.205 279.733C275.453 279.496 275.643 279.206 275.773 278.863L279.271 279.094C279.093 279.934 278.729 280.668 278.179 281.295C277.634 281.917 276.93 282.402 276.066 282.751C275.208 283.095 274.216 283.266 273.092 283.266ZM281.819 283V269.364H285.485V271.743H285.627C285.876 270.897 286.293 270.257 286.879 269.825C287.465 269.387 288.14 269.168 288.903 269.168C289.093 269.168 289.297 269.18 289.516 269.204C289.735 269.228 289.927 269.26 290.093 269.301V272.657C289.915 272.604 289.67 272.557 289.356 272.515C289.042 272.474 288.755 272.453 288.495 272.453C287.939 272.453 287.441 272.574 287.003 272.817C286.571 273.054 286.228 273.385 285.974 273.811C285.725 274.238 285.601 274.729 285.601 275.285V283H281.819ZM199.846 313V294.818H212.098V297.988H203.69V302.32H211.467V305.489H203.69V309.831H212.133V313H199.846ZM218.243 299.364L220.747 304.131L223.313 299.364H227.192L223.242 306.182L227.299 313H223.437L220.747 308.286L218.101 313H214.195L218.243 306.182L214.337 299.364H218.243ZM233.254 313.257C232.384 313.257 231.608 313.107 230.928 312.805C230.247 312.497 229.708 312.044 229.312 311.446C228.921 310.843 228.726 310.091 228.726 309.191C228.726 308.434 228.865 307.798 229.143 307.283C229.421 306.768 229.8 306.353 230.28 306.04C230.759 305.726 231.304 305.489 231.913 305.33C232.529 305.17 233.174 305.057 233.848 304.992C234.642 304.909 235.281 304.832 235.766 304.761C236.251 304.684 236.604 304.572 236.823 304.424C237.042 304.276 237.151 304.057 237.151 303.767V303.714C237.151 303.152 236.973 302.717 236.618 302.409C236.269 302.101 235.772 301.947 235.127 301.947C234.446 301.947 233.905 302.098 233.502 302.4C233.1 302.696 232.833 303.069 232.703 303.518L229.205 303.234C229.383 302.406 229.732 301.69 230.253 301.086C230.774 300.476 231.446 300.009 232.268 299.683C233.097 299.352 234.056 299.186 235.145 299.186C235.902 299.186 236.627 299.275 237.32 299.452C238.018 299.63 238.637 299.905 239.175 300.278C239.72 300.651 240.149 301.13 240.462 301.716C240.776 302.296 240.933 302.992 240.933 303.803V313H237.346V311.109H237.24C237.021 311.535 236.728 311.911 236.361 312.237C235.994 312.556 235.553 312.808 235.038 312.991C234.523 313.169 233.928 313.257 233.254 313.257ZM234.337 310.647C234.893 310.647 235.384 310.538 235.811 310.319C236.237 310.094 236.571 309.792 236.814 309.413C237.056 309.035 237.178 308.605 237.178 308.126V306.679C237.059 306.756 236.897 306.827 236.689 306.892C236.488 306.951 236.26 307.007 236.006 307.061C235.751 307.108 235.497 307.152 235.242 307.194C234.988 307.229 234.757 307.262 234.55 307.292C234.106 307.357 233.718 307.46 233.387 307.602C233.055 307.744 232.798 307.937 232.614 308.179C232.431 308.416 232.339 308.712 232.339 309.067C232.339 309.582 232.526 309.976 232.899 310.248C233.277 310.514 233.757 310.647 234.337 310.647ZM243.867 313V299.364H247.472V301.77H247.631C247.915 300.971 248.389 300.34 249.052 299.879C249.715 299.417 250.508 299.186 251.431 299.186C252.366 299.186 253.162 299.42 253.819 299.887C254.476 300.349 254.914 300.976 255.133 301.77H255.275C255.553 300.988 256.056 300.364 256.784 299.896C257.518 299.423 258.385 299.186 259.386 299.186C260.658 299.186 261.691 299.592 262.484 300.402C263.283 301.207 263.682 302.35 263.682 303.829V313H259.909V304.575C259.909 303.817 259.708 303.249 259.306 302.87C258.903 302.492 258.4 302.302 257.796 302.302C257.11 302.302 256.574 302.521 256.19 302.959C255.805 303.391 255.613 303.962 255.613 304.673V313H251.946V304.495C251.946 303.826 251.754 303.294 251.369 302.897C250.99 302.5 250.49 302.302 249.869 302.302C249.448 302.302 249.07 302.409 248.732 302.622C248.401 302.829 248.137 303.122 247.942 303.501C247.747 303.874 247.649 304.312 247.649 304.815V313H243.867ZM266.67 318.114V299.364H270.399V301.654H270.567C270.733 301.287 270.973 300.914 271.286 300.536C271.606 300.151 272.02 299.831 272.529 299.577C273.044 299.316 273.683 299.186 274.447 299.186C275.441 299.186 276.359 299.446 277.199 299.967C278.039 300.482 278.711 301.261 279.214 302.302C279.717 303.338 279.969 304.637 279.969 306.2C279.969 307.721 279.723 309.005 279.232 310.053C278.747 311.094 278.084 311.884 277.243 312.423C276.409 312.956 275.474 313.222 274.438 313.222C273.704 313.222 273.08 313.101 272.565 312.858C272.056 312.615 271.639 312.31 271.313 311.944C270.987 311.571 270.739 311.195 270.567 310.816H270.452V318.114H266.67ZM270.372 306.182C270.372 306.993 270.484 307.7 270.709 308.304C270.934 308.907 271.26 309.378 271.686 309.715C272.112 310.047 272.63 310.212 273.239 310.212C273.855 310.212 274.376 310.044 274.802 309.706C275.228 309.363 275.551 308.89 275.77 308.286C275.995 307.676 276.107 306.975 276.107 306.182C276.107 305.395 275.998 304.702 275.779 304.104C275.56 303.507 275.237 303.039 274.811 302.702C274.385 302.364 273.861 302.196 273.239 302.196C272.624 302.196 272.103 302.358 271.677 302.684C271.257 303.009 270.934 303.471 270.709 304.069C270.484 304.667 270.372 305.371 270.372 306.182ZM286.272 294.818V313H282.49V294.818H286.272ZM295.516 313.266C294.114 313.266 292.906 312.982 291.894 312.414C290.888 311.84 290.113 311.029 289.568 309.982C289.024 308.928 288.751 307.682 288.751 306.244C288.751 304.841 289.024 303.61 289.568 302.551C290.113 301.491 290.879 300.666 291.867 300.074C292.862 299.482 294.028 299.186 295.365 299.186C296.265 299.186 297.102 299.331 297.878 299.621C298.659 299.905 299.34 300.334 299.92 300.908C300.506 301.482 300.961 302.205 301.287 303.075C301.612 303.939 301.775 304.951 301.775 306.111V307.15H290.261V304.806H298.215C298.215 304.261 298.097 303.779 297.86 303.359C297.623 302.938 297.295 302.61 296.875 302.373C296.46 302.131 295.978 302.009 295.427 302.009C294.853 302.009 294.344 302.142 293.9 302.409C293.462 302.669 293.119 303.021 292.871 303.465C292.622 303.903 292.495 304.391 292.489 304.93V307.158C292.489 307.833 292.613 308.416 292.862 308.907C293.116 309.399 293.474 309.777 293.936 310.044C294.398 310.31 294.945 310.443 295.578 310.443C295.999 310.443 296.383 310.384 296.732 310.266C297.082 310.147 297.381 309.97 297.629 309.733C297.878 309.496 298.067 309.206 298.197 308.863L301.695 309.094C301.518 309.934 301.154 310.668 300.603 311.295C300.059 311.917 299.354 312.402 298.49 312.751C297.632 313.095 296.641 313.266 295.516 313.266Z" fill="white"/>
<defs>
<filter id="filter0_d_123_134" x="0" y="0" width="500" height="610" filterUnits="userSpaceOnUse" color-interpolation-filters="sRGB">
<feFlood flood-opacity="0" result="BackgroundImageFix"/>
<feColorMatrix in="SourceAlpha" type="matrix" values="0 0 0 0 0 0 0 0 0 0 0 0 0 0 0 0 0 0 127 0" result="hardAlpha"/>
<feOffset dy="22"/>
<feGaussianBlur stdDeviation="20"/>
<feComposite in2="hardAlpha" operator="out"/>
<feColorMatrix type="matrix" values="0 0 0 0 0.588235 0 0 0 0 0.494118 0 0 0 0 0.462745 0 0 0 0.25 0"/>
<feBlend mode="normal" in2="BackgroundImageFix" result="effect1_dropShadow_123_134"/>
<feBlend mode="normal" in="SourceGraphic" in2="effect1_dropShadow_123_134" result="shape"/>
</filter>
</defs>
</svg>
